M48
; DRILL file {KiCad 9.0.2} date 2025-05-25T17:22:09-0500
; FORMAT={-:-/ absolute / metric / decimal}
; #@! TF.CreationDate,2025-05-25T17:22:09-05:00
; #@! TF.GenerationSoftware,Kicad,Pcbnew,9.0.2
; #@! TF.FileFunction,Plated,1,2,PTH
FMAT,2
METRIC
; #@! TA.AperFunction,Plated,PTH,ViaDrill
T1C0.300
; #@! TA.AperFunction,Plated,PTH,ComponentDrill
T2C0.889
; #@! TA.AperFunction,Plated,PTH,ComponentDrill
T3C1.000
; #@! TA.AperFunction,Plated,PTH,ComponentDrill
T4C1.100
; #@! TA.AperFunction,Plated,PTH,ComponentDrill
T5C1.500
%
G90
G05
T1
X175.816Y-68.818
X175.816Y-125.968
X178.23Y-116.443
X178.23Y-123.587
X180.578Y-87.868
X182.358Y-124.188
X182.959Y-114.062
X182.959Y-123.587
X182.959Y-125.968
X185.373Y-122.737
X185.373Y-123.587
X187.722Y-117.118
X187.722Y-130.731
X192.517Y-116.443
X192.517Y-123.587
X194.519Y-116.443
T2
X172.482Y-66.437
X172.482Y-68.977
X172.482Y-71.517
X172.482Y-74.057
X172.482Y-76.597
X172.482Y-79.137
X172.482Y-81.677
X187.722Y-66.437
X187.722Y-68.977
X187.722Y-71.517
X187.722Y-74.057
X187.722Y-76.597
X187.722Y-79.137
X187.722Y-81.677
T3
X165.814Y-94.066
X168.354Y-94.066
X170.894Y-94.066
X173.434Y-94.066
X178.091Y-97.274
X178.091Y-99.774
X178.091Y-102.274
X192.591Y-97.274
X192.591Y-102.274
T4
X106.124Y-68.818
X106.759Y-73.581
X116.284Y-68.818
X116.919Y-73.581
X120.729Y-68.818
X120.729Y-73.581
X130.889Y-68.818
X130.889Y-73.581
X135.017Y-68.818
X135.017Y-73.581
X145.177Y-68.818
X145.177Y-73.581
X149.304Y-68.818
X149.304Y-73.581
X159.464Y-68.818
X159.464Y-73.581
X165.656Y-87.868
X175.816Y-87.868
X182.642Y-87.868
X192.802Y-87.868
T5
X109.934Y-85.328
X109.934Y-104.378
X109.934Y-123.428
X116.284Y-82.788
X116.284Y-101.838
X116.284Y-120.888
X128.984Y-85.328
X128.984Y-104.378
X128.984Y-123.428
X135.334Y-82.788
X135.334Y-101.838
X135.334Y-120.888
X148.034Y-85.328
X148.034Y-104.378
X148.034Y-123.428
X154.384Y-82.788
X154.384Y-101.838
X154.384Y-120.888
T5
G00X184.941Y-94.174
M15
G01X186.241Y-94.174
M16
G05
G00X184.941Y-105.374
M15
G01X186.241Y-105.374
M16
G05
M30
