M48
; DRILL file {KiCad 9.0.2} date 2025-05-25T17:22:09-0500
; FORMAT={-:-/ absolute / metric / decimal}
; #@! TF.CreationDate,2025-05-25T17:22:09-05:00
; #@! TF.GenerationSoftware,Kicad,Pcbnew,9.0.2
; #@! TF.FileFunction,NonPlated,1,2,NPTH
FMAT,2
METRIC
; #@! TA.AperFunction,NonPlated,NPTH,ComponentDrill
T1C1.700
; #@! TA.AperFunction,NonPlated,NPTH,ComponentDrill
T2C4.000
%
G90
G05
T1
X108.664Y-87.868
X108.664Y-106.918
X108.664Y-125.968
X118.824Y-87.868
X118.824Y-106.918
X118.824Y-125.968
X127.714Y-87.868
X127.714Y-106.918
X127.714Y-125.968
X137.874Y-87.868
X137.874Y-106.918
X137.874Y-125.968
X146.764Y-87.868
X146.764Y-106.918
X146.764Y-125.968
X156.924Y-87.868
X156.924Y-106.918
X156.924Y-125.968
T2
X113.744Y-87.868
X113.744Y-106.918
X113.744Y-125.968
X132.794Y-87.868
X132.794Y-106.918
X132.794Y-125.968
X151.844Y-87.868
X151.844Y-106.918
X151.844Y-125.968
M30
